<?xml version="1.0" encoding="UTF-8" standalone="no"?>
<!DOCTYPE svg PUBLIC "-//W3C//DTD SVG 1.1//EN" "http://www.w3.org/Graphics/SVG/1.1/DTD/svg11.dtd">
<svg width="100%" height="100%" viewBox="0 0 2415 802" version="1.1" xmlns="http://www.w3.org/2000/svg" xmlns:xlink="http://www.w3.org/1999/xlink" xml:space="preserve" xmlns:serif="http://www.serif.com/" style="fill-rule:evenodd;clip-rule:evenodd;stroke-linejoin:round;stroke-miterlimit:2;">
    <g transform="matrix(4.16667,0,0,4.16667,796.658,2.65133)">
        <path d="M0,191.197L-191.198,191.197L-191.198,0L0,0L0,191.197ZM-189.359,189.359L-1.838,189.359L-1.838,1.838L-189.359,1.838L-189.359,189.359Z" style="fill:white;fill-rule:nonzero;"/>
    </g>
    <g transform="matrix(4.16667,0,0,4.16667,645.696,610.633)">
        <path d="M0,-63.002L4.899,-66.578C3.046,-68.563 1.06,-70.945 1.06,-74.785C1.06,-77.696 3.046,-80.874 5.56,-82.197C4.237,-83.786 2.118,-85.24 -0.925,-85.24C-4.897,-85.24 -8.207,-82.328 -8.207,-78.491C-8.207,-75.844 -6.486,-73.592 -4.499,-72.534C-4.499,-68.828 -2.777,-65.52 0,-63.002M-26.206,-89.079L-22.103,-96.36L-28.192,-96.36C-28.192,-95.037 -29.385,-93.582 -30.843,-93.582C-32.427,-93.582 -33.487,-94.639 -33.487,-96.36L-38.915,-96.36C-38.915,-94.772 -40.106,-93.582 -41.562,-93.582C-43.018,-93.582 -44.21,-94.772 -44.21,-96.36L-50.299,-96.36L-46.724,-89.346C-43.943,-89.609 -41.298,-89.741 -38.649,-89.741C-33.755,-89.741 -29.516,-89.477 -26.206,-89.079M-37.327,-24.486C-37.988,-25.676 -38.649,-27.134 -38.649,-29.778C-38.649,-33.221 -36.665,-36.133 -32.427,-37.986C-29.648,-39.311 -27.533,-40.501 -23.825,-42.353C-15.089,-46.854 -12.044,-55.327 -12.044,-64.062C-12.044,-68.43 -13.237,-71.873 -14.691,-74.785C-14.296,-72.402 -13.898,-70.415 -13.898,-68.034C-13.898,-58.9 -17.074,-52.149 -25.414,-48.046C-30.706,-45.401 -33.356,-44.34 -36.534,-42.751C-41.031,-40.371 -43.548,-37.324 -43.548,-33.617C-43.548,-28.985 -41.167,-25.543 -37.327,-24.486M-42.489,-26.205C-43.943,-27.663 -45.532,-30.31 -45.532,-33.751C-45.532,-38.118 -42.622,-41.824 -37.459,-44.473C-32.958,-46.59 -30.312,-47.651 -26.342,-49.502C-18,-53.605 -15.487,-60.621 -15.487,-68.164C-15.487,-75.446 -17.868,-79.152 -19.854,-81.536C-18.399,-78.755 -18,-75.446 -18,-72.665C-18,-64.591 -20.382,-57.576 -29.781,-53.87C-34.547,-51.885 -37.592,-51.224 -41.694,-49.372C-48.182,-46.325 -50.695,-42.751 -50.695,-37.459C-50.695,-32.428 -47.518,-27.663 -42.489,-26.205M-47.518,-27.265C-49.771,-29.116 -52.682,-32.162 -52.682,-37.589C-52.682,-43.281 -50.299,-47.515 -42.887,-50.692C-38.119,-52.677 -35.605,-53.605 -31.104,-55.327C-21.574,-58.9 -19.589,-65.916 -19.589,-72.8C-19.589,-79.416 -21.973,-83.257 -24.884,-85.771C-23.163,-83.653 -22.103,-80.077 -22.103,-76.374C-22.103,-67.638 -25.414,-62.738 -34.811,-59.428C-38.649,-58.238 -42.752,-57.047 -46.989,-55.458C-54.665,-52.547 -58.637,-48.313 -58.637,-41.162C-58.637,-33.751 -52.946,-28.19 -47.518,-27.265M-52.813,-28.19C-58.108,-30.839 -60.624,-36.529 -60.624,-41.561C-60.624,-48.841 -56.124,-54.003 -48.58,-56.784C-43.943,-58.504 -40.238,-59.562 -35.605,-61.151C-26.604,-64.327 -23.691,-68.563 -23.691,-76.636C-23.691,-81.27 -25.414,-85.24 -28.192,-87.49C-27.267,-86.432 -27.002,-85.109 -27.002,-83.917C-27.002,-81.666 -28.192,-80.608 -29.914,-80.608C-30.973,-80.608 -32.033,-81.27 -32.165,-82.328C-31.635,-81.933 -31.237,-81.799 -30.706,-81.799C-29.252,-81.799 -28.458,-82.859 -28.458,-84.315C-28.458,-86.565 -30.576,-87.757 -32.693,-88.021C-34.547,-88.287 -36.534,-88.287 -38.782,-88.287C-41.031,-88.287 -43.15,-88.153 -45.929,-88.021C-44.21,-85.638 -38.517,-86.3 -36.797,-85.109C-38.255,-85.24 -39.709,-85.24 -41.167,-84.846C-41.167,-83.917 -41.562,-82.859 -42.489,-82.859C-44.21,-82.859 -45.004,-84.711 -46.195,-88.021L-52.946,-87.49C-54.005,-87.359 -54.402,-86.961 -54.271,-86.167L-53.608,-79.549C-53.608,-79.285 -53.342,-79.152 -53.076,-79.152C-52.813,-79.152 -52.55,-79.285 -52.417,-79.684C-52.151,-80.212 -51.355,-81.402 -49.373,-81.402C-46.46,-81.402 -44.21,-78.755 -44.079,-75.712C-45.137,-77.166 -47.518,-78.491 -51.492,-78.491C-54.535,-78.491 -57.048,-77.564 -61.02,-77.564C-65.255,-77.564 -67.638,-79.152 -67.638,-81.137C-67.638,-82.065 -67.507,-82.595 -66.977,-83.257C-68.698,-82.463 -70.021,-81.005 -70.021,-78.624C-70.021,-75.712 -67.902,-72.665 -61.684,-72.665C-55.992,-72.665 -53.342,-76.24 -48.182,-76.24C-45.799,-76.24 -44.606,-75.05 -44.606,-73.725C-44.606,-72.534 -45.668,-71.474 -47.518,-71.474C-49.771,-71.474 -51.355,-72.665 -52.151,-73.858C-52.284,-74.123 -52.417,-74.254 -52.682,-74.254C-53.076,-74.254 -53.211,-73.99 -53.211,-73.725L-53.076,-67.372C-53.076,-66.578 -52.682,-66.179 -51.753,-66.312C-47.784,-66.71 -43.681,-67.239 -39.84,-67.503C-32.693,-68.164 -27.794,-72.933 -27.794,-78.225C-27.794,-79.02 -27.794,-79.684 -27.927,-80.476C-27.267,-79.416 -27.002,-78.358 -27.002,-77.035C-27.002,-72.136 -29.648,-68.43 -38.119,-66.179C-42.622,-64.989 -45.929,-64.46 -49.771,-63.533C-59.962,-61.151 -66.578,-53.341 -66.578,-44.604C-66.578,-36.529 -60.887,-29.25 -52.813,-28.19M-97.158,-75.975C-96.627,-77.166 -96.494,-78.225 -96.494,-79.02C-96.494,-80.741 -97.29,-82.328 -98.083,-82.99C-96.098,-82.99 -94.378,-81.536 -94.378,-79.549C-94.378,-77.696 -95.569,-76.504 -97.158,-75.975M-72.8,-44.473L-68.565,-46.724C-67.109,-55.59 -61.816,-61.812 -52.55,-64.062C-57.446,-63.798 -61.684,-63.666 -67.638,-63.401C-73.991,-63.137 -84.448,-62.341 -91.728,-61.812C-93.186,-61.679 -94.111,-62.21 -94.509,-63.401C-94.906,-64.724 -95.7,-67.239 -95.833,-68.695C-95.967,-69.886 -95.7,-70.682 -94.64,-71.474C-92.524,-72.933 -90.405,-74.651 -90.405,-78.225C-90.405,-82.065 -93.714,-84.578 -96.759,-84.578C-97.817,-84.578 -98.612,-84.447 -99.273,-84.184C-100.069,-84.711 -100.862,-85.109 -102.45,-85.109C-104.703,-85.109 -106.686,-83.653 -107.216,-82.463C-111.054,-82.726 -114.099,-79.947 -113.835,-76.24C-113.306,-76.771 -112.246,-77.298 -111.054,-77.298C-109.6,-77.298 -108.274,-76.24 -108.274,-74.651C-108.274,-73.196 -108.54,-71.342 -108.54,-69.359C-108.54,-63.268 -103.641,-60.09 -103.641,-56.916C-103.641,-55.327 -104.833,-54.003 -106.422,-54.003C-105.495,-50.692 -102.45,-48.974 -98.348,-48.974C-95.7,-48.974 -93.317,-49.237 -89.48,-49.237C-78.491,-49.237 -73.729,-48.046 -72.8,-44.473M-32.033,-7.012L-30.706,-7.012C-30.843,-11.249 -31.899,-14.16 -33.618,-17.204C-34.547,-18.924 -35.738,-20.777 -36.665,-21.973C-37.193,-22.764 -37.857,-23.027 -38.649,-23.027C-39.181,-23.027 -39.577,-22.633 -39.181,-21.973C-38.119,-20.25 -36.665,-17.602 -34.811,-13.498C-36.399,-13.234 -36.797,-12.441 -36.797,-11.116C-36.797,-8.999 -34.811,-7.012 -32.033,-7.012M-102.318,-75.446C-102.187,-79.152 -103.774,-81.137 -106.024,-82.065C-105.628,-82.197 -105.099,-82.463 -104.305,-82.463C-102.583,-82.463 -100.729,-81.005 -100.729,-78.755C-100.729,-77.564 -101.127,-76.24 -102.318,-75.446M-17.472,17.739C-18,16.549 -19.722,15.359 -21.84,15.359C-23.032,15.359 -23.825,15.622 -24.355,15.888C-24.223,14.828 -23.163,13.637 -21.045,13.637C-18.532,13.637 -17.208,15.622 -17.472,17.739M-18.266,23.432C-19.061,22.505 -20.382,21.712 -22.103,21.712C-24.223,21.712 -25.28,22.639 -25.812,23.301C-26.075,21.712 -24.751,19.727 -22.236,19.727C-19.589,19.727 -18.266,21.578 -18.266,23.432M-112.377,-39.709C-111.452,-41.96 -109.334,-43.546 -106.819,-44.074C-106.292,-44.871 -105.628,-45.53 -104.964,-46.062L-109.465,-64.858C-109.996,-66.179 -110.394,-67.503 -110.394,-69.359C-110.394,-71.342 -109.996,-73.329 -109.996,-74.386C-109.996,-75.314 -110.525,-75.577 -111.054,-75.577C-111.452,-75.577 -111.717,-75.577 -111.848,-75.446L-111.848,-74.915C-111.848,-71.873 -113.704,-69.489 -116.747,-69.489C-119.79,-69.489 -122.174,-72.004 -122.174,-74.915C-122.174,-77.828 -119.79,-80.212 -116.747,-80.212C-116.218,-80.212 -115.555,-80.212 -114.762,-79.947C-113.835,-82.328 -110.923,-84.447 -107.88,-84.049C-109.996,-86.698 -113.173,-88.287 -116.747,-88.287C-124.425,-88.287 -130.512,-82.726 -130.512,-74.915C-130.512,-67.638 -124.556,-61.812 -117.143,-61.679L-112.377,-39.709ZM-91.861,-11.249C-89.876,-11.249 -87.758,-12.309 -85.773,-14.292C-82.2,-17.734 -77.168,-22.898 -74.124,-24.884C-71.477,-26.603 -69.756,-27.265 -68.037,-27.265C-66.977,-27.265 -66.181,-26.999 -65.388,-26.205L-60.887,-29.648C-66.049,-33.486 -68.433,-38.516 -68.565,-44.736C-75.712,-40.899 -80.875,-35.603 -86.833,-30.574C-87.891,-29.778 -88.42,-29.384 -89.347,-29.384C-90.274,-29.384 -91.068,-30.31 -92.657,-31.898C-93.98,-33.221 -94.246,-34.016 -94.246,-34.941C-94.246,-36.529 -93.714,-37.06 -93.714,-39.178C-93.714,-43.412 -97.023,-45.797 -100.2,-45.797C-102.849,-45.797 -104.833,-44.34 -105.495,-42.485C-109.071,-42.223 -111.321,-39.573 -111.321,-36.797C-111.321,-36.133 -111.186,-35.603 -111.054,-35.208C-112.377,-34.411 -113.704,-32.825 -113.704,-30.705C-113.704,-28.454 -112.512,-26.338 -110.525,-25.676C-110.792,-26.074 -110.923,-26.603 -110.923,-27.265C-110.923,-28.454 -109.863,-29.515 -108.407,-29.515C-107.216,-29.515 -106.422,-29.116 -105.495,-28.059C-104.305,-26.47 -103.112,-25.014 -101.127,-23.293C-99.273,-21.704 -97.158,-20.647 -95.171,-19.455C-93.98,-18.661 -93.055,-17.602 -93.055,-16.013C-93.055,-14.953 -93.848,-13.763 -95.436,-13.365C-94.774,-11.91 -93.449,-11.249 -91.861,-11.249M-99.406,-37.06C-99.538,-39.709 -101.523,-41.824 -104.039,-42.353C-103.641,-42.621 -102.982,-43.015 -101.922,-43.015C-100.069,-43.015 -98.612,-41.428 -98.612,-39.709C-98.612,-38.384 -99.01,-37.722 -99.406,-37.06M-84.714,32.564C-85.245,31.903 -85.508,31.242 -85.508,30.446C-85.508,28.86 -84.185,27.668 -82.333,27.668C-79.42,27.668 -77.832,30.846 -73.991,30.846C-69.623,30.846 -67.507,27.668 -63.536,27.668C-61.549,27.668 -58.768,28.86 -58.768,31.373C-58.768,31.772 -58.904,32.169 -59.166,32.434C-54.665,32.434 -51.492,28.595 -51.492,22.24C-51.492,13.372 -51.753,9.798 -51.886,4.902C-48.443,4.768 -45.137,3.047 -45.668,-2.379C-46.593,-1.586 -47.651,-1.188 -48.841,-1.188C-50.43,-1.188 -51.623,-2.379 -51.623,-4.1C-51.623,-4.897 -51.623,-5.821 -51.492,-6.748L-36.003,-7.146C-37.459,-7.94 -38.517,-9.527 -38.517,-11.38C-38.517,-12.703 -37.988,-13.63 -36.928,-14.16C-38.386,-17.204 -39.577,-19.586 -41.031,-21.837C-41.827,-23.027 -42.752,-24.221 -44.606,-24.221C-48.71,-24.353 -57.048,-23.162 -61.286,-21.704C-64.461,-20.647 -67.507,-18.264 -67.507,-12.838C-67.507,-7.806 -65.786,1.062 -65.918,14.96C-65.918,16.948 -66.448,17.608 -67.638,17.873C-68.698,18.138 -71.477,18.4 -73.199,18.138C-74.124,18.003 -74.92,17.344 -75.449,15.359C-76.11,12.577 -78.095,9.798 -82.067,9.798C-85.643,9.798 -88.816,12.447 -88.287,16.416C-90.008,17.475 -90.803,19.197 -90.803,20.785C-90.803,22.374 -90.274,23.696 -89.612,24.49C-90.008,25.417 -90.14,25.946 -90.14,26.873C-90.14,30.183 -87.227,32.564 -84.714,32.564M-103.379,-33.486C-104.172,-35.073 -105.894,-36 -107.88,-36C-108.673,-36 -109.334,-35.868 -109.863,-35.736C-109.6,-36.797 -108.407,-37.722 -106.686,-37.722C-104.436,-37.722 -102.982,-36 -103.379,-33.486M-80.213,17.739C-80.744,16.549 -82.463,15.359 -84.581,15.359C-85.773,15.359 -86.567,15.622 -87.097,15.888C-86.966,14.828 -85.904,13.637 -83.787,13.637C-81.273,13.637 -79.95,15.622 -80.213,17.739M-91.466,29.257C-91.861,28.462 -91.993,27.668 -91.993,26.873C-91.993,26.079 -91.861,25.417 -91.597,24.756C-92.259,23.563 -92.657,22.24 -92.657,20.785C-92.657,18.8 -91.728,16.948 -90.405,15.755L-98.612,-19.853C-99.937,-20.513 -101.26,-21.309 -102.318,-22.235C-104.172,-23.824 -105.23,-25.014 -106.951,-26.999C-107.482,-27.527 -107.88,-27.794 -108.407,-27.794C-109.204,-27.794 -109.73,-27.265 -109.465,-26.205L-107.746,-18L-104.172,-15.484L-94.246,27.139L-91.466,29.257ZM-81.005,23.432C-81.801,22.505 -83.125,21.712 -84.846,21.712C-86.966,21.712 -88.023,22.639 -88.555,23.301C-88.816,21.712 -87.493,19.727 -84.979,19.727C-82.333,19.727 -81.005,21.578 -81.005,23.432M-146.397,33.358L-138.322,27.139L-128.395,-15.484L-124.821,-18L-116.877,-52.149L-118.599,-60.09C-120.586,-60.488 -122.307,-61.017 -123.761,-61.812L-146.397,33.358ZM-21.973,32.564C-22.501,31.903 -22.767,31.242 -22.767,30.446C-22.767,28.86 -21.443,27.668 -19.589,27.668C-16.678,27.668 -15.089,30.846 -11.25,30.846C-6.884,30.846 -4.765,27.668 -0.794,27.668C1.192,27.668 3.971,28.86 3.971,31.373C3.971,31.772 3.839,32.169 3.575,32.434C8.076,32.434 11.251,28.595 11.251,22.24C11.251,13.77 10.458,4.372 9.53,-5.026C11.913,-5.556 14.163,-7.94 14.163,-10.982C14.163,-12.041 13.769,-13.234 13.105,-14.292C12.442,-13.365 11.251,-12.571 9.268,-12.041C6.487,-11.249 3.046,-10.852 0.529,-10.852C-5.163,-10.852 -7.015,-11.249 -9.661,-12.041C-9.796,-15.615 -12.044,-18.528 -14.162,-20.513C-10.854,-19.191 -9.397,-18.528 -4.103,-18.528C12.84,-18.528 23.297,-29.912 23.297,-42.885C23.297,-52.283 17.341,-56.649 11.913,-59.827L6.884,-56.254C12.973,-53.474 16.942,-49.372 16.942,-43.812C16.942,-37.722 12.047,-33.353 6.356,-33.353C0.265,-33.353 -4.499,-37.722 -4.499,-43.678C-4.499,-48.177 -2.383,-51.487 1.588,-54.665C5.56,-57.84 11.649,-61.679 14.959,-65.253C16.681,-67.108 18.135,-70.02 18.003,-72.271C20.253,-73.329 21.974,-75.577 21.974,-78.491C21.974,-82.328 18.27,-85.24 14.298,-85.24C11.913,-85.24 9.268,-83.786 7.941,-82.197C10.326,-81.27 12.577,-78.095 12.577,-74.785C12.577,-72.004 10.857,-69.623 8.87,-67.638C5.826,-64.591 1.856,-62.341 -2.514,-58.767C-7.809,-54.4 -10.986,-49.237 -10.986,-43.412C-10.986,-35.34 -4.765,-27.794 5.029,-27.794C8.207,-27.794 10.722,-28.454 12.577,-29.648C9.399,-25.941 3.445,-24.087 -2.777,-24.087C-8.207,-24.087 -11.912,-24.884 -15.881,-27.794C-19.457,-30.44 -22.236,-36.662 -22.103,-41.296C-25.015,-39.573 -28.458,-37.986 -31.37,-36.662C-35.474,-34.678 -36.797,-32.559 -36.797,-28.985C-36.797,-24.221 -33.487,-20.513 -32.033,-17.734C-30.046,-14.16 -29.385,-10.982 -29.122,-7.674C-28.325,0.401 -23.691,4.106 -15.487,4.106C-11.778,4.106 -6.884,3.842 -4.897,3.576C-4.103,7.284 -3.176,11.65 -3.176,14.96C-3.176,16.948 -3.706,17.608 -4.897,17.873C-5.955,18.138 -8.736,18.4 -10.456,18.138C-11.381,18.003 -12.177,17.344 -12.708,15.359C-13.367,12.577 -15.354,9.798 -19.324,9.798C-22.899,9.798 -26.075,12.447 -25.546,16.416C-27.267,17.475 -28.062,19.197 -28.062,20.785C-28.062,22.374 -27.533,23.696 -26.869,24.49C-27.267,25.417 -27.4,25.946 -27.4,26.873C-27.4,30.183 -24.486,32.564 -21.973,32.564" style="fill:white;fill-rule:nonzero;"/>
    </g>
    <g transform="matrix(4.16667,0,0,4.16667,645.65,610.617)">
        <path d="M0,-62.997L4.898,-66.573C3.046,-68.558 1.06,-70.94 1.06,-74.78C1.06,-77.691 3.046,-80.869 5.559,-82.191C4.237,-83.78 2.117,-85.233 -0.925,-85.233C-4.898,-85.233 -8.207,-82.322 -8.207,-78.485C-8.207,-75.839 -6.486,-73.587 -4.499,-72.529C-4.499,-68.823 -2.777,-65.516 0,-62.997M-26.205,-89.072L-22.102,-96.353L-28.19,-96.353C-28.19,-95.031 -29.383,-93.575 -30.841,-93.575C-32.425,-93.575 -33.485,-94.632 -33.485,-96.353L-38.914,-96.353C-38.914,-94.766 -40.102,-93.575 -41.559,-93.575C-43.015,-93.575 -44.207,-94.766 -44.207,-96.353L-50.296,-96.353L-46.722,-89.34C-43.94,-89.603 -41.295,-89.734 -38.648,-89.734C-33.753,-89.734 -29.515,-89.471 -26.205,-89.072M-37.325,-24.484C-37.986,-25.673 -38.648,-27.132 -38.648,-29.775C-38.648,-33.22 -36.662,-36.13 -32.425,-37.984C-29.647,-39.308 -27.53,-40.499 -23.822,-42.349C-15.088,-46.849 -12.043,-55.323 -12.043,-64.056C-12.043,-68.425 -13.236,-71.868 -14.689,-74.78C-14.296,-72.396 -13.898,-70.409 -13.898,-68.029C-13.898,-58.895 -17.073,-52.143 -25.411,-48.044C-30.705,-45.396 -33.354,-44.337 -36.531,-42.747C-41.028,-40.367 -43.546,-37.322 -43.546,-33.615C-43.546,-28.986 -41.165,-25.54 -37.325,-24.484M-42.486,-26.203C-43.94,-27.66 -45.528,-30.306 -45.528,-33.747C-45.528,-38.117 -42.618,-41.822 -37.457,-44.47C-32.956,-46.587 -30.311,-47.648 -26.34,-49.499C-17.999,-53.601 -15.486,-60.616 -15.486,-68.159C-15.486,-75.441 -17.867,-79.147 -19.853,-81.529C-18.398,-78.748 -17.999,-75.441 -17.999,-72.659C-17.999,-64.587 -20.38,-57.572 -29.78,-53.866C-34.545,-51.882 -37.589,-51.222 -41.692,-49.369C-48.178,-46.322 -50.692,-42.747 -50.692,-37.455C-50.692,-32.423 -47.515,-27.66 -42.486,-26.203M-47.515,-27.261C-49.767,-29.115 -52.679,-32.16 -52.679,-37.587C-52.679,-43.277 -50.296,-47.511 -42.884,-50.689C-38.116,-52.675 -35.604,-53.601 -31.102,-55.323C-21.573,-58.895 -19.587,-65.911 -19.587,-72.795C-19.587,-79.411 -21.971,-83.251 -24.883,-85.765C-23.163,-83.647 -22.102,-80.071 -22.102,-76.368C-22.102,-67.632 -25.411,-62.734 -34.809,-59.424C-38.648,-58.234 -42.75,-57.044 -46.986,-55.454C-54.662,-52.544 -58.634,-48.308 -58.634,-41.16C-58.634,-33.747 -52.942,-28.187 -47.515,-27.261M-52.81,-28.187C-58.105,-30.837 -60.619,-36.527 -60.619,-41.558C-60.619,-48.837 -56.12,-53.999 -48.577,-56.78C-43.94,-58.499 -40.236,-59.558 -35.604,-61.145C-26.602,-64.323 -23.691,-68.558 -23.691,-76.631C-23.691,-81.265 -25.411,-85.233 -28.19,-87.484C-27.266,-86.426 -27.001,-85.103 -27.001,-83.911C-27.001,-81.661 -28.19,-80.603 -29.912,-80.603C-30.972,-80.603 -32.032,-81.265 -32.162,-82.322C-31.633,-81.929 -31.235,-81.793 -30.705,-81.793C-29.251,-81.793 -28.457,-82.853 -28.457,-84.309C-28.457,-86.559 -30.573,-87.751 -32.691,-88.015C-34.545,-88.28 -36.531,-88.28 -38.78,-88.28C-41.028,-88.28 -43.148,-88.147 -45.926,-88.015C-44.207,-85.632 -38.514,-86.294 -36.795,-85.103C-38.253,-85.233 -39.707,-85.233 -41.165,-84.839C-41.165,-83.911 -41.559,-82.853 -42.486,-82.853C-44.207,-82.853 -45.002,-84.705 -46.192,-88.015L-52.942,-87.484C-54.002,-87.353 -54.398,-86.955 -54.268,-86.161L-53.604,-79.543C-53.604,-79.28 -53.338,-79.147 -53.073,-79.147C-52.81,-79.147 -52.546,-79.28 -52.414,-79.678C-52.148,-80.206 -51.353,-81.398 -49.369,-81.398C-46.458,-81.398 -44.207,-78.748 -44.076,-75.706C-45.134,-77.16 -47.515,-78.485 -51.487,-78.485C-54.531,-78.485 -57.044,-77.559 -61.015,-77.559C-65.251,-77.559 -67.633,-79.147 -67.633,-81.132C-67.633,-82.059 -67.503,-82.589 -66.973,-83.251C-68.693,-82.456 -70.017,-80.999 -70.017,-78.618C-70.017,-75.706 -67.898,-72.659 -61.679,-72.659C-55.989,-72.659 -53.338,-76.236 -48.178,-76.236C-45.795,-76.236 -44.604,-75.045 -44.604,-73.72C-44.604,-72.529 -45.666,-71.47 -47.515,-71.47C-49.767,-71.47 -51.353,-72.659 -52.148,-73.852C-52.281,-74.118 -52.414,-74.249 -52.679,-74.249C-53.073,-74.249 -53.208,-73.984 -53.208,-73.72L-53.073,-67.368C-53.073,-66.573 -52.679,-66.175 -51.75,-66.308C-47.781,-66.706 -43.678,-67.234 -39.837,-67.499C-32.691,-68.159 -27.793,-72.927 -27.793,-78.22C-27.793,-79.015 -27.793,-79.678 -27.926,-80.47C-27.266,-79.411 -27.001,-78.352 -27.001,-77.03C-27.001,-72.132 -29.647,-68.425 -38.116,-66.175C-42.618,-64.984 -45.926,-64.456 -49.767,-63.528C-59.958,-61.145 -66.575,-53.338 -66.575,-44.599C-66.575,-36.527 -60.884,-29.246 -52.81,-28.187M-97.15,-75.97C-96.62,-77.16 -96.487,-78.22 -96.487,-79.015C-96.487,-80.735 -97.284,-82.322 -98.076,-82.983C-96.091,-82.983 -94.372,-81.529 -94.372,-79.543C-94.372,-77.691 -95.562,-76.498 -97.15,-75.97M-72.796,-44.47L-68.561,-46.72C-67.105,-55.585 -61.813,-61.808 -52.546,-64.056C-57.443,-63.794 -61.679,-63.661 -67.633,-63.395C-73.985,-63.133 -84.442,-62.336 -91.722,-61.808C-93.18,-61.675 -94.104,-62.206 -94.502,-63.395C-94.899,-64.719 -95.694,-67.234 -95.827,-68.69C-95.96,-69.884 -95.694,-70.677 -94.633,-71.47C-92.518,-72.927 -90.398,-74.647 -90.398,-78.22C-90.398,-82.059 -93.709,-84.572 -96.753,-84.572C-97.812,-84.572 -98.604,-84.441 -99.267,-84.178C-100.062,-84.705 -100.855,-85.103 -102.443,-85.103C-104.695,-85.103 -106.679,-83.647 -107.21,-82.456C-111.046,-82.721 -114.091,-79.941 -113.828,-76.236C-113.298,-76.766 -112.238,-77.294 -111.046,-77.294C-109.592,-77.294 -108.268,-76.236 -108.268,-74.647C-108.268,-73.19 -108.532,-71.337 -108.532,-69.354C-108.532,-63.263 -103.634,-60.086 -103.634,-56.911C-103.634,-55.323 -104.827,-53.999 -106.415,-53.999C-105.488,-50.689 -102.443,-48.97 -98.342,-48.97C-95.694,-48.97 -93.311,-49.234 -89.474,-49.234C-78.486,-49.234 -73.725,-48.044 -72.796,-44.47M-32.032,-7.013L-30.705,-7.013C-30.841,-11.249 -31.897,-14.16 -33.616,-17.203C-34.545,-18.921 -35.736,-20.775 -36.662,-21.97C-37.191,-22.763 -37.855,-23.027 -38.648,-23.027C-39.178,-23.027 -39.573,-22.63 -39.178,-21.97C-38.116,-20.249 -36.662,-17.599 -34.809,-13.499C-36.397,-13.232 -36.795,-12.439 -36.795,-11.117C-36.795,-8.997 -34.809,-7.013 -32.032,-7.013M-102.311,-75.441C-102.181,-79.147 -103.767,-81.132 -106.017,-82.059C-105.621,-82.191 -105.092,-82.456 -104.298,-82.456C-102.577,-82.456 -100.723,-80.999 -100.723,-78.748C-100.723,-77.559 -101.12,-76.236 -102.311,-75.441M-17.471,17.739C-17.999,16.547 -19.721,15.358 -21.837,15.358C-23.03,15.358 -23.822,15.622 -24.354,15.885C-24.222,14.829 -23.163,13.635 -21.044,13.635C-18.53,13.635 -17.208,15.622 -17.471,17.739M-18.265,23.432C-19.06,22.506 -20.38,21.708 -22.102,21.708C-24.222,21.708 -25.279,22.635 -25.81,23.299C-26.073,21.708 -24.751,19.725 -22.234,19.725C-19.587,19.725 -18.265,21.579 -18.265,23.432M-112.37,-39.705C-111.444,-41.956 -109.327,-43.542 -106.812,-44.074C-106.284,-44.867 -105.621,-45.527 -104.958,-46.058L-109.457,-64.853C-109.988,-66.175 -110.387,-67.499 -110.387,-69.354C-110.387,-71.337 -109.988,-73.323 -109.988,-74.382C-109.988,-75.309 -110.517,-75.572 -111.046,-75.572C-111.444,-75.572 -111.709,-75.572 -111.84,-75.441L-111.84,-74.91C-111.84,-71.868 -113.696,-69.484 -116.739,-69.484C-119.782,-69.484 -122.166,-71.999 -122.166,-74.91C-122.166,-77.822 -119.782,-80.206 -116.739,-80.206C-116.21,-80.206 -115.546,-80.206 -114.754,-79.941C-113.828,-82.322 -110.916,-84.441 -107.873,-84.043C-109.988,-86.692 -113.165,-88.28 -116.739,-88.28C-124.416,-88.28 -130.503,-82.721 -130.503,-74.91C-130.503,-67.632 -124.547,-61.808 -117.135,-61.675L-112.37,-39.705ZM-91.855,-11.249C-89.87,-11.249 -87.752,-12.308 -85.768,-14.292C-82.195,-17.732 -77.164,-22.894 -74.118,-24.882C-71.472,-26.599 -69.751,-27.261 -68.032,-27.261C-66.973,-27.261 -66.176,-26.999 -65.383,-26.203L-60.884,-29.646C-66.045,-33.484 -68.428,-38.513 -68.561,-44.734C-75.708,-40.896 -80.869,-35.599 -86.828,-30.574C-87.885,-29.775 -88.415,-29.382 -89.34,-29.382C-90.268,-29.382 -91.062,-30.306 -92.65,-31.896C-93.974,-33.22 -94.239,-34.013 -94.239,-34.939C-94.239,-36.527 -93.709,-37.058 -93.709,-39.173C-93.709,-43.41 -97.016,-45.792 -100.194,-45.792C-102.842,-45.792 -104.827,-44.337 -105.488,-42.484C-109.063,-42.22 -111.314,-39.572 -111.314,-36.794C-111.314,-36.13 -111.179,-35.599 -111.046,-35.205C-112.37,-34.41 -113.696,-32.824 -113.696,-30.703C-113.696,-28.453 -112.504,-26.335 -110.517,-25.673C-110.785,-26.074 -110.916,-26.599 -110.916,-27.261C-110.916,-28.453 -109.856,-29.513 -108.399,-29.513C-107.21,-29.513 -106.415,-29.115 -105.488,-28.056C-104.298,-26.468 -103.106,-25.013 -101.12,-23.292C-99.267,-21.703 -97.15,-20.644 -95.165,-19.453C-93.974,-18.66 -93.049,-17.599 -93.049,-16.013C-93.049,-14.951 -93.841,-13.761 -95.429,-13.365C-94.768,-11.908 -93.443,-11.249 -91.855,-11.249M-99.4,-37.058C-99.532,-39.705 -101.517,-41.822 -104.032,-42.349C-103.634,-42.619 -102.975,-43.013 -101.915,-43.013C-100.062,-43.013 -98.604,-41.423 -98.604,-39.705C-98.604,-38.38 -99.003,-37.718 -99.4,-37.058M-84.709,32.563C-85.239,31.901 -85.502,31.239 -85.502,30.444C-85.502,28.856 -84.18,27.665 -82.327,27.665C-79.415,27.665 -77.827,30.842 -73.985,30.842C-69.618,30.842 -67.503,27.665 -63.531,27.665C-61.544,27.665 -58.764,28.856 -58.764,31.372C-58.764,31.77 -58.9,32.167 -59.163,32.432C-54.662,32.432 -51.487,28.592 -51.487,22.239C-51.487,13.372 -51.75,9.797 -51.883,4.901C-48.439,4.768 -45.134,3.047 -45.666,-2.376C-46.59,-1.585 -47.648,-1.189 -48.838,-1.189C-50.427,-1.189 -51.619,-2.376 -51.619,-4.099C-51.619,-4.894 -51.619,-5.82 -51.487,-6.747L-36.001,-7.146C-37.457,-7.939 -38.514,-9.527 -38.514,-11.38C-38.514,-12.703 -37.986,-13.63 -36.926,-14.16C-38.384,-17.203 -39.573,-19.585 -41.028,-21.835C-41.825,-23.027 -42.75,-24.218 -44.604,-24.218C-48.708,-24.351 -57.044,-23.16 -61.282,-21.703C-64.458,-20.644 -67.503,-18.263 -67.503,-12.835C-67.503,-7.806 -65.781,1.061 -65.915,14.958C-65.915,16.946 -66.443,17.608 -67.633,17.87C-68.693,18.137 -71.472,18.401 -73.194,18.137C-74.118,18.001 -74.915,17.342 -75.443,15.358C-76.106,12.577 -78.09,9.797 -82.061,9.797C-85.636,9.797 -88.81,12.446 -88.281,16.417C-90.003,17.475 -90.797,19.196 -90.797,20.782C-90.797,22.372 -90.268,23.694 -89.606,24.489C-90.003,25.415 -90.133,25.946 -90.133,26.872C-90.133,30.182 -87.222,32.563 -84.709,32.563M-103.373,-33.484C-104.165,-35.074 -105.886,-35.997 -107.873,-35.997C-108.665,-35.997 -109.327,-35.865 -109.856,-35.734C-109.592,-36.794 -108.399,-37.718 -106.679,-37.718C-104.428,-37.718 -102.975,-35.997 -103.373,-33.484M-80.207,17.739C-80.738,16.547 -82.458,15.358 -84.575,15.358C-85.768,15.358 -86.562,15.622 -87.09,15.885C-86.96,14.829 -85.898,13.635 -83.781,13.635C-81.267,13.635 -79.944,15.622 -80.207,17.739M-91.46,29.254C-91.855,28.46 -91.987,27.665 -91.987,26.872C-91.987,26.077 -91.855,25.415 -91.59,24.754C-92.253,23.561 -92.65,22.239 -92.65,20.782C-92.65,18.797 -91.722,16.946 -90.398,15.753L-98.604,-19.849C-99.931,-20.511 -101.253,-21.308 -102.311,-22.234C-104.165,-23.822 -105.223,-25.013 -106.943,-26.999C-107.475,-27.525 -107.873,-27.792 -108.399,-27.792C-109.197,-27.792 -109.723,-27.261 -109.457,-26.203L-107.739,-17.999L-104.165,-15.482L-94.239,27.135L-91.46,29.254ZM-81,23.432C-81.796,22.506 -83.119,21.708 -84.841,21.708C-86.96,21.708 -88.018,22.635 -88.548,23.299C-88.81,21.708 -87.487,19.725 -84.973,19.725C-82.327,19.725 -81,21.579 -81,23.432M-146.387,33.356L-138.313,27.135L-128.386,-15.482L-124.812,-17.999L-116.87,-52.143L-118.59,-60.086C-120.577,-60.483 -122.299,-61.013 -123.752,-61.808L-146.387,33.356ZM-21.971,32.563C-22.5,31.901 -22.765,31.239 -22.765,30.444C-22.765,28.856 -21.442,27.665 -19.587,27.665C-16.676,27.665 -15.088,30.842 -11.249,30.842C-6.884,30.842 -4.764,27.665 -0.794,27.665C1.192,27.665 3.971,28.856 3.971,31.372C3.971,31.77 3.838,32.167 3.575,32.432C8.075,32.432 11.25,28.592 11.25,22.239C11.25,13.77 10.458,4.372 9.529,-5.027C11.912,-5.556 14.163,-7.939 14.163,-10.982C14.163,-12.04 13.768,-13.232 13.105,-14.292C12.441,-13.365 11.25,-12.572 9.268,-12.04C6.487,-11.249 3.046,-10.851 0.528,-10.851C-5.162,-10.851 -7.014,-11.249 -9.661,-12.04C-9.795,-15.615 -12.043,-18.527 -14.161,-20.511C-10.853,-19.191 -9.396,-18.527 -4.102,-18.527C12.838,-18.527 23.295,-29.91 23.295,-42.88C23.295,-52.28 17.339,-56.644 11.912,-59.822L6.883,-56.249C12.972,-53.47 16.941,-49.369 16.941,-43.806C16.941,-37.718 12.046,-33.349 6.356,-33.349C0.265,-33.349 -4.499,-37.718 -4.499,-43.677C-4.499,-48.173 -2.383,-51.484 1.589,-54.661C5.559,-57.837 11.648,-61.675 14.958,-65.248C16.68,-67.104 18.133,-70.015 18.001,-72.267C20.251,-73.323 21.973,-75.572 21.973,-78.485C21.973,-82.322 18.269,-85.233 14.296,-85.233C11.912,-85.233 9.268,-83.78 7.94,-82.191C10.325,-81.265 12.576,-78.089 12.576,-74.78C12.576,-71.999 10.856,-69.616 8.87,-67.632C5.825,-64.587 1.855,-62.336 -2.514,-58.763C-7.809,-54.395 -10.985,-49.234 -10.985,-43.41C-10.985,-35.337 -4.764,-27.792 5.028,-27.792C8.205,-27.792 10.722,-28.453 12.576,-29.646C9.398,-25.941 3.444,-24.085 -2.777,-24.085C-8.207,-24.085 -11.91,-24.882 -15.881,-27.792C-19.455,-30.439 -22.234,-36.66 -22.102,-41.292C-25.013,-39.572 -28.457,-37.984 -31.368,-36.66C-35.472,-34.673 -36.795,-32.556 -36.795,-28.986C-36.795,-24.218 -33.485,-20.511 -32.032,-17.732C-30.044,-14.16 -29.383,-10.982 -29.119,-7.675C-28.323,0.401 -23.691,4.106 -15.486,4.106C-11.779,4.106 -6.884,3.84 -4.898,3.575C-4.102,7.286 -3.176,11.651 -3.176,14.958C-3.176,16.946 -3.707,17.608 -4.898,17.87C-5.955,18.137 -8.736,18.401 -10.454,18.137C-11.379,18.001 -12.177,17.342 -12.707,15.358C-13.367,12.577 -15.354,9.797 -19.323,9.797C-22.898,9.797 -26.073,12.446 -25.544,16.417C-27.266,17.475 -28.06,19.196 -28.06,20.782C-28.06,22.372 -27.53,23.694 -26.868,24.489C-27.266,25.415 -27.398,25.946 -27.398,26.872C-27.398,30.182 -24.484,32.563 -21.971,32.563" style="fill:white;fill-rule:nonzero;"/>
    </g>
    <g transform="matrix(4.16667,0,0,4.16667,2162.89,683.796)">
        <path d="M0,27.718L18.863,27.718L18.863,21.482L7.883,21.482L7.883,17.058L18.504,17.058L18.504,10.984L7.883,10.984L7.883,6.599L18.863,6.599L18.863,0.365L0,0.365L0,27.718ZM-19.629,28.359C-13.193,28.359 -7.842,25.263 -7.842,17.62L-7.842,0.365L-15.727,0.365L-15.727,16.896C-15.727,19.992 -17.416,21.359 -19.629,21.359C-21.84,21.359 -23.529,19.992 -23.529,16.896L-23.529,0.365L-31.414,0.365L-31.414,17.62C-31.414,25.263 -26.062,28.359 -19.629,28.359M-47.943,28.359C-43.074,28.359 -39.699,26.873 -38.047,26.025L-38.047,13.919L-45.729,13.919L-45.729,21.32C-46.297,21.439 -46.897,21.521 -47.502,21.521C-50.559,21.521 -53.937,19.189 -53.937,14.038C-53.937,8.49 -50.959,5.755 -45.853,5.755C-43.035,5.755 -40.623,6.72 -39.133,7.523L-39.133,1.087C-40.744,0.365 -43.4,-0.641 -47.018,-0.641C-56.312,-0.641 -62.545,5.109 -62.545,14.038C-62.545,22.97 -55.59,28.359 -47.943,28.359M-82.416,16.452L-79.721,6.359L-79.357,6.359L-76.66,16.452L-82.416,16.452ZM-73.648,27.718L-65.561,27.718L-73.766,0.365L-85.312,0.365L-93.475,27.718L-85.393,27.718L-83.9,22.047L-75.174,22.047L-73.648,27.718ZM-110.73,12.995L-110.73,6.197L-107.553,6.197C-105.422,6.197 -104.176,7.847 -104.176,9.575C-104.176,11.306 -105.422,12.995 -107.553,12.995L-110.73,12.995ZM-118.615,27.718L-110.73,27.718L-110.73,18.101L-108.721,18.101L-103.975,27.718L-95.084,27.718L-100.111,19.269C-100.633,18.384 -101.279,17.579 -101.641,17.337L-101.602,17.177C-99.187,16.091 -95.768,14.038 -95.768,9.374C-95.768,4.466 -99.67,0.365 -106.062,0.365L-118.615,0.365L-118.615,27.718ZM-138.846,12.995L-138.846,6.238L-135.748,6.238C-134.02,6.238 -132.453,7.685 -132.453,9.615C-132.453,11.587 -134.02,12.995 -135.748,12.995L-138.846,12.995ZM-146.73,27.718L-138.846,27.718L-138.846,18.867L-134.822,18.867C-128.428,18.867 -124.447,14.806 -124.447,9.777C-124.447,4.749 -128.428,0.365 -134.822,0.365L-146.73,0.365L-146.73,27.718ZM-190.771,27.718L-182.887,27.718L-182.887,11.306L-182.768,11.306L-174.482,27.718L-164.869,27.718L-164.869,0.365L-172.752,0.365L-172.752,16.695L-172.871,16.695L-181.076,0.365L-190.771,0.365L-190.771,27.718ZM-206.699,27.718L-198.818,27.718L-198.818,0.365L-206.699,0.365L-206.699,27.718ZM-236.424,28.359C-229.99,28.359 -224.639,25.263 -224.639,17.62L-224.639,0.365L-232.523,0.365L-232.523,16.896C-232.523,19.992 -234.211,21.359 -236.424,21.359C-238.635,21.359 -240.324,19.992 -240.324,16.896L-240.324,0.365L-248.209,0.365L-248.209,17.62C-248.209,25.263 -242.861,28.359 -236.424,28.359M-267.834,27.718L-259.953,27.718L-259.953,6.759L-253.154,6.759L-253.154,0.365L-274.673,0.365L-274.673,6.759L-267.834,6.759L-267.834,27.718ZM-285.775,28.158C-282.519,28.158 -279.783,27.312 -278.134,26.47L-278.134,19.591C-279.703,20.435 -281.512,21.16 -284.368,21.16C-287.226,21.16 -291.366,18.988 -291.366,14.038C-291.366,9.093 -287.586,6.759 -283.923,6.759C-281.432,6.759 -279.703,7.322 -278.175,8.087L-278.175,1.288C-279.783,0.568 -281.792,0.003 -285.013,0.003C-293.095,0.003 -299.974,5.314 -299.974,14.038C-299.974,22.767 -293.817,28.158 -285.775,28.158" style="fill:white;fill-rule:nonzero;"/>
    </g>
    <g transform="matrix(4.16667,0,0,4.16667,2059.83,511.975)">
        <path d="M0,28.639C7.48,28.639 11.621,23.932 11.621,19.387C11.621,14.922 9.332,12.309 4.865,11.223C3.059,10.781 2.051,10.619 0.682,10.338C-1.168,9.934 -1.973,9.412 -1.973,8.366C-1.973,7.16 -0.602,6.395 2.453,6.395C5.791,6.395 8.566,7.44 9.936,8.207L9.936,1.406C8.162,0.643 5.267,0 2.051,0C-4.748,0 -9.775,3.578 -9.775,9.133C-9.775,13.352 -7.402,16.008 -3.701,16.934C-1.648,17.457 -0.564,17.698 1.203,18.139C2.695,18.5 3.697,18.985 3.697,20.073C3.697,21.44 2.25,22.203 -0.404,22.203C-4.025,22.203 -7.684,20.633 -9.455,19.387L-9.455,26.547C-7.242,27.793 -4.104,28.639 0,28.639M-22.082,28.438C-18.822,28.438 -16.092,27.59 -14.439,26.746L-14.439,19.871C-16.008,20.715 -17.818,21.44 -20.672,21.44C-23.529,21.44 -27.676,19.266 -27.676,14.319C-27.676,9.373 -23.893,7.037 -20.23,7.037C-17.738,7.037 -16.008,7.602 -14.484,8.366L-14.484,1.569C-16.092,0.844 -18.1,0.28 -21.314,0.28C-29.404,0.28 -36.283,5.592 -36.283,14.319C-36.283,23.047 -30.123,28.438 -22.082,28.438M-50.602,27.996L-42.717,27.996L-42.717,0.642L-50.602,0.642L-50.602,27.996ZM-70.43,27.996L-62.545,27.996L-62.545,7.037L-55.748,7.037L-55.748,0.643L-77.266,0.643L-77.266,7.037L-70.43,7.037L-70.43,27.996ZM-100.836,27.996L-81.977,27.996L-81.977,21.76L-92.953,21.76L-92.953,17.336L-82.334,17.336L-82.334,11.262L-92.953,11.262L-92.953,6.881L-81.977,6.881L-81.977,0.643L-100.836,0.643L-100.836,27.996ZM-134.785,27.996L-126.902,27.996L-126.902,11.582L-126.777,11.582L-118.492,27.996L-108.883,27.996L-108.883,0.643L-116.764,0.643L-116.764,16.973L-116.885,16.973L-125.09,0.643L-134.785,0.643L-134.785,27.996ZM-156.141,13.274L-156.141,6.477L-152.963,6.477C-150.832,6.477 -149.582,8.125 -149.582,9.854C-149.582,11.582 -150.832,13.274 -152.963,13.274L-156.141,13.274ZM-164.027,27.996L-156.141,27.996L-156.141,18.381L-154.133,18.381L-149.387,27.996L-140.494,27.996L-145.52,19.547C-146.047,18.662 -146.687,17.86 -147.051,17.618L-147.012,17.457C-144.596,16.369 -141.18,14.319 -141.18,9.653C-141.18,4.746 -145.078,0.643 -151.475,0.643L-164.027,0.643L-164.027,27.996ZM-190.088,27.996L-171.223,27.996L-171.223,21.76L-182.205,21.76L-182.205,17.336L-171.584,17.336L-171.584,11.262L-182.205,11.262L-182.205,6.881L-171.223,6.881L-171.223,0.643L-190.088,0.643L-190.088,27.996ZM-211.891,22.123L-211.891,16.41L-207.424,16.41C-205.738,16.41 -204.65,17.819 -204.65,19.227C-204.65,20.799 -205.738,22.123 -207.424,22.123L-211.891,22.123ZM-211.891,11.824L-211.891,6.516L-208.27,6.516C-206.662,6.516 -205.615,7.764 -205.615,9.17C-205.615,10.576 -206.662,11.824 -208.27,11.824L-211.891,11.824ZM-219.775,27.996L-206.377,27.996C-199.338,27.996 -196.521,24.051 -196.521,20.592C-196.521,15.969 -199.66,14.438 -201.713,13.916L-201.713,13.758C-199.863,13.031 -197.77,11.303 -197.77,7.963C-197.77,4.184 -200.789,0.643 -207.061,0.643L-219.775,0.643L-219.775,27.996ZM-240.85,27.996L-232.965,27.996L-232.965,17.981L-223.512,0.643L-232.241,0.643L-236.705,10.418L-236.864,10.418L-241.171,0.643L-250.101,0.643L-240.85,17.981L-240.85,27.996ZM-261.039,28.438C-257.783,28.438 -255.047,27.59 -253.397,26.746L-253.397,19.871C-254.966,20.715 -256.775,21.44 -259.632,21.44C-262.489,21.44 -266.63,19.266 -266.63,14.319C-266.63,9.373 -262.849,7.037 -259.187,7.037C-256.695,7.037 -254.966,7.602 -253.439,8.366L-253.439,1.569C-255.047,0.844 -257.056,0.28 -260.276,0.28C-268.359,0.28 -275.237,5.592 -275.237,14.319C-275.237,23.047 -269.081,28.438 -261.039,28.438" style="fill:white;fill-rule:nonzero;"/>
    </g>
    <g transform="matrix(4.16667,0,0,4.16667,2152.5,372.304)">
        <path d="M0,13.762L0,0.005L1.65,0.005C5.43,0.005 8.326,2.458 8.326,6.883C8.326,11.307 5.43,13.762 1.65,13.762L0,13.762ZM-7.887,20.559L2.939,20.559C10.781,20.559 16.973,15.127 16.973,6.883C16.973,-1.364 10.781,-6.794 2.939,-6.794L-7.887,-6.794L-7.887,20.559ZM-41.83,20.559L-33.945,20.559L-33.945,4.147L-33.826,4.147L-25.537,20.559L-15.926,20.559L-15.926,-6.794L-23.811,-6.794L-23.811,9.537L-23.93,9.537L-32.135,-6.794L-41.83,-6.794L-41.83,20.559ZM-62.906,9.295L-60.211,-0.801L-59.852,-0.801L-57.154,9.295L-62.906,9.295ZM-54.137,20.559L-46.053,20.559L-54.256,-6.794L-65.805,-6.794L-73.967,20.559L-65.883,20.559L-64.395,14.885L-55.668,14.885L-54.137,20.559ZM-99.025,21.201C-91.541,21.201 -87.4,16.496 -87.4,11.949C-87.4,7.487 -89.693,4.871 -94.156,3.786C-95.969,3.344 -96.973,3.18 -98.342,2.898C-100.19,2.5 -100.996,1.975 -100.996,0.93C-100.996,-0.279 -99.627,-1.042 -96.57,-1.042C-93.233,-1.042 -90.457,0.005 -89.088,0.768L-89.088,-6.029C-90.861,-6.794 -93.756,-7.439 -96.973,-7.439C-103.77,-7.439 -108.799,-3.857 -108.799,1.693C-108.799,5.92 -106.426,8.571 -102.727,9.496C-100.674,10.02 -99.59,10.262 -97.818,10.703C-96.328,11.063 -95.326,11.549 -95.326,12.633C-95.326,14 -96.773,14.768 -99.428,14.768C-103.047,14.768 -106.705,13.198 -108.477,11.949L-108.477,19.11C-106.264,20.358 -103.127,21.201 -99.025,21.201M-121.108,21C-117.85,21 -115.115,20.157 -113.465,19.313L-113.465,12.434C-115.033,13.278 -116.844,14 -119.699,14C-122.555,14 -126.695,11.83 -126.695,6.883C-126.695,1.934 -122.918,-0.398 -119.258,-0.398C-116.764,-0.398 -115.033,0.165 -113.504,0.93L-113.504,-5.868C-115.115,-6.593 -117.125,-7.155 -120.344,-7.155C-128.428,-7.155 -135.305,-1.847 -135.305,6.883C-135.305,15.61 -129.15,21 -121.108,21M-149.619,20.559L-141.738,20.559L-141.738,-6.794L-149.619,-6.794L-149.619,20.559ZM-169.451,20.559L-161.568,20.559L-161.568,-0.398L-154.773,-0.398L-154.773,-6.794L-176.289,-6.794L-176.289,-0.398L-169.451,-0.398L-169.451,20.559ZM-192.658,14.201C-196.164,14.201 -197.932,11.387 -197.932,6.883C-197.932,2.376 -196.164,-0.439 -192.658,-0.439C-189.119,-0.439 -187.473,2.376 -187.473,6.883C-187.473,11.387 -189.119,14.201 -192.658,14.201M-192.658,21.201C-184.496,21.201 -179.029,16.014 -179.029,6.883C-179.029,-2.246 -184.496,-7.439 -192.658,-7.439C-200.783,-7.439 -206.377,-2.246 -206.377,6.883C-206.377,16.014 -200.783,21.201 -192.658,21.201M-226.568,14.684L-226.568,8.973L-222.105,8.973C-220.41,8.973 -219.326,10.381 -219.326,11.789C-219.326,13.36 -220.41,14.684 -222.105,14.684L-226.568,14.684ZM-226.568,4.387L-226.568,-0.919L-222.949,-0.919C-221.34,-0.919 -220.297,0.327 -220.297,1.732C-220.297,3.141 -221.34,4.387 -222.949,4.387L-226.568,4.387ZM-234.453,20.559L-221.057,20.559C-214.022,20.559 -211.203,16.618 -211.203,13.157C-211.203,8.532 -214.34,7.002 -216.393,6.479L-216.393,6.319C-214.543,5.597 -212.451,3.864 -212.451,0.528C-212.451,-3.251 -215.465,-6.794 -221.744,-6.794L-234.453,-6.794L-234.453,20.559ZM-254.521,14.201C-258.021,14.201 -259.791,11.387 -259.791,6.883C-259.791,2.376 -258.021,-0.439 -254.521,-0.439C-250.984,-0.439 -249.334,2.376 -249.334,6.883C-249.334,11.387 -250.984,14.201 -254.521,14.201M-254.521,21.201C-246.355,21.201 -240.889,16.014 -240.889,6.883C-240.889,-2.246 -246.355,-7.439 -254.521,-7.439C-262.648,-7.439 -268.24,-2.246 -268.24,6.883C-268.24,16.014 -262.648,21.201 -254.521,21.201M-287.985,5.837L-287.985,-0.96L-284.811,-0.96C-282.679,-0.96 -281.429,0.688 -281.429,2.419C-281.429,4.147 -282.679,5.837 -284.811,5.837L-287.985,5.837ZM-295.871,20.559L-287.985,20.559L-287.985,10.946L-285.976,10.946L-281.231,20.559L-272.343,20.559L-277.366,12.11C-277.893,11.225 -278.534,10.422 -278.897,10.182L-278.857,10.02C-276.445,8.932 -273.026,6.883 -273.026,2.216C-273.026,-2.693 -276.925,-6.794 -283.32,-6.794L-295.871,-6.794L-295.871,20.559" style="fill:white;fill-rule:nonzero;"/>
    </g>
    <g transform="matrix(4.16667,0,0,4.16667,2349.75,170.654)">
        <path d="M0,28.639C7.482,28.639 11.629,23.932 11.629,19.389C11.629,14.925 9.334,12.307 4.869,11.223C3.06,10.778 2.053,10.621 0.685,10.338C-1.166,9.935 -1.971,9.412 -1.971,8.366C-1.971,7.16 -0.6,6.397 2.457,6.397C5.793,6.397 8.568,7.442 9.939,8.206L9.939,1.408C8.166,0.643 5.271,0 2.053,0C-4.744,0 -9.772,3.581 -9.772,9.132C-9.772,13.354 -7.398,16.009 -3.697,16.934C-1.645,17.459 -0.562,17.699 1.209,18.141C2.697,18.503 3.699,18.985 3.699,20.071C3.699,21.438 2.254,22.205 -0.401,22.205C-4.018,22.205 -7.68,20.636 -9.451,19.389L-9.451,26.548C-7.24,27.794 -4.104,28.639 0,28.639M-22.08,28.438C-18.82,28.438 -16.088,27.593 -14.436,26.747L-14.436,19.871C-16.006,20.716 -17.816,21.438 -20.67,21.438C-23.527,21.438 -27.668,19.266 -27.668,14.321C-27.668,9.374 -23.891,7.042 -20.229,7.042C-17.734,7.042 -16.006,7.601 -14.479,8.366L-14.479,1.569C-16.088,0.846 -18.098,0.281 -21.315,0.281C-29.4,0.281 -36.277,5.591 -36.277,14.321C-36.277,23.048 -30.123,28.438 -22.08,28.438M-50.6,27.995L-42.715,27.995L-42.715,0.643L-50.6,0.643L-50.6,27.995ZM-70.428,27.995L-62.543,27.995L-62.543,7.042L-55.746,7.042L-55.746,0.643L-77.266,0.643L-77.266,7.042L-70.428,7.042L-70.428,27.995ZM-94.24,16.733L-91.543,6.637L-91.18,6.637L-88.486,16.733L-94.24,16.733ZM-85.469,27.995L-77.381,27.995L-85.59,0.643L-97.137,0.643L-105.301,27.995L-97.215,27.995L-95.727,22.324L-87,22.324L-85.469,27.995ZM-139.365,27.995L-131.844,27.995L-131.844,11.302L-131.725,11.302L-124.647,22.927L-124.08,22.927L-117.326,11.263L-117.205,11.263L-117.205,27.995L-109.522,27.995L-109.522,0.643L-118.656,0.643L-124.285,10.338L-124.404,10.338L-130.033,0.643L-139.365,0.643L-139.365,27.995ZM-160.727,13.273L-160.727,6.477L-157.549,6.477C-155.416,6.477 -154.168,8.126 -154.168,9.855C-154.168,11.584 -155.416,13.273 -157.549,13.273L-160.727,13.273ZM-168.607,27.995L-160.727,27.995L-160.727,18.384L-158.715,18.384L-153.969,27.995L-145.08,27.995L-150.104,19.549C-150.629,18.662 -151.272,17.859 -151.635,17.618L-151.594,17.459C-149.18,16.372 -145.764,14.321 -145.764,9.654C-145.764,4.746 -149.664,0.643 -156.059,0.643L-168.607,0.643L-168.607,27.995ZM-188.678,21.64C-192.178,21.64 -193.947,18.825 -193.947,14.321C-193.947,9.814 -192.178,6.999 -188.678,6.999C-185.139,6.999 -183.494,9.814 -183.494,14.321C-183.494,18.825 -185.139,21.64 -188.678,21.64M-188.678,28.639C-180.514,28.639 -175.043,23.452 -175.043,14.321C-175.043,5.188 -180.514,0 -188.678,0C-196.805,0 -202.395,5.188 -202.395,14.321C-202.395,23.452 -196.805,28.639 -188.678,28.639M-225.924,0.643L-225.924,27.995L-218.041,27.995L-218.041,17.416L-207.342,17.416L-207.342,11.343L-218.041,11.343L-218.041,6.879L-207.225,6.879L-207.225,0.643L-225.924,0.643ZM-259.871,27.995L-251.986,27.995L-251.986,11.584L-251.865,11.584L-243.584,27.995L-233.967,27.995L-233.967,0.643L-241.85,0.643L-241.85,16.974L-241.973,16.974L-250.182,0.643L-259.871,0.643L-259.871,27.995ZM-275.797,27.995L-267.916,27.995L-267.916,0.643L-275.797,0.643L-275.797,27.995ZM-311.035,0.643L-311.035,27.995L-303.15,27.995L-303.15,17.416L-292.451,17.416L-292.451,11.343L-303.15,11.343L-303.15,6.879L-292.33,6.879L-292.33,0.643L-311.035,0.643ZM-331.104,21.64C-334.604,21.64 -336.372,18.825 -336.372,14.321C-336.372,9.814 -334.604,6.999 -331.104,6.999C-327.564,6.999 -325.916,9.814 -325.916,14.321C-325.916,18.825 -327.564,21.64 -331.104,21.64M-331.104,28.639C-322.938,28.639 -317.469,23.452 -317.469,14.321C-317.469,5.188 -322.938,0 -331.104,0C-339.23,0 -344.819,5.188 -344.819,14.321C-344.819,23.452 -339.23,28.639 -331.104,28.639" style="fill:white;fill-rule:nonzero;"/>
    </g>
    <g transform="matrix(4.16667,0,0,4.16667,2336.01,2.675)">
        <path d="M0,27.353L18.863,27.353L18.863,21.117L7.883,21.117L7.883,16.693L18.504,16.693L18.504,10.619L7.883,10.619L7.883,6.236L18.863,6.236L18.863,0.001L0,0.001L0,27.353ZM-19.828,27.353L-11.947,27.353L-11.947,6.396L-5.148,6.396L-5.148,0.001L-26.666,0.001L-26.666,6.396L-19.828,6.396L-19.828,27.353ZM-43.4,27.996C-36.963,27.996 -31.615,24.899 -31.615,17.257L-31.615,0.001L-39.496,0.001L-39.496,16.531C-39.496,19.628 -41.186,20.996 -43.4,20.996C-45.611,20.996 -47.303,19.628 -47.303,16.531L-47.303,0.001L-55.182,0.001L-55.182,17.257C-55.182,24.899 -49.836,27.996 -43.4,27.996M-74.816,27.353L-66.932,27.353L-66.932,6.396L-60.133,6.396L-60.133,0.001L-81.648,0.001L-81.648,6.396L-74.816,6.396L-74.816,27.353ZM-94.684,27.353L-86.799,27.353L-86.799,0.001L-94.684,0.001L-94.684,27.353ZM-114.51,27.353L-106.629,27.353L-106.629,6.396L-99.832,6.396L-99.832,0.001L-121.35,0.001L-121.35,6.396L-114.51,6.396L-114.51,27.353ZM-135.629,27.996C-128.147,27.996 -124.002,23.289 -124.002,18.745C-124.002,14.279 -126.295,11.665 -130.762,10.58C-132.57,10.136 -133.574,9.977 -134.947,9.694C-136.795,9.29 -137.6,8.769 -137.6,7.721C-137.6,6.517 -136.232,5.753 -133.174,5.753C-129.836,5.753 -127.063,6.799 -125.691,7.563L-125.691,0.765C-127.463,0.001 -130.359,-0.643 -133.574,-0.643C-140.375,-0.643 -145.402,2.936 -145.402,8.488C-145.402,12.71 -143.029,15.366 -139.328,16.291C-137.275,16.814 -136.189,17.056 -134.42,17.497C-132.934,17.86 -131.93,18.342 -131.93,19.428C-131.93,20.795 -133.377,21.559 -136.031,21.559C-139.652,21.559 -143.311,19.991 -145.08,18.745L-145.08,25.904C-142.869,27.152 -139.73,27.996 -135.629,27.996M-178.066,27.353L-170.18,27.353L-170.18,10.942L-170.059,10.942L-161.772,27.353L-152.158,27.353L-152.158,0.001L-160.043,0.001L-160.043,16.332L-160.164,16.332L-168.369,0.001L-178.066,0.001L-178.066,27.353ZM-193.99,27.353L-186.107,27.353L-186.107,0.001L-193.99,0.001L-193.99,27.353ZM-235.984,0.001L-235.984,27.353L-228.098,27.353L-228.098,16.653L-220.012,16.653L-220.012,27.353L-212.129,27.353L-212.129,0.001L-220.012,0.001L-220.012,10.457L-228.098,10.457L-228.098,0.001L-235.984,0.001ZM-249.576,27.796C-246.318,27.796 -243.582,26.948 -241.934,26.105L-241.934,19.228C-243.5,20.073 -245.313,20.795 -248.168,20.795C-251.025,20.795 -255.164,18.623 -255.164,13.676C-255.164,8.73 -251.385,6.396 -247.727,6.396C-245.232,6.396 -243.5,6.958 -241.975,7.721L-241.975,0.926C-243.582,0.202 -245.594,-0.362 -248.809,-0.362C-256.897,-0.362 -263.772,4.948 -263.772,13.676C-263.772,22.405 -257.623,27.796 -249.576,27.796M-288.229,27.353L-269.363,27.353L-269.363,21.117L-280.348,21.117L-280.348,16.693L-269.725,16.693L-269.725,10.619L-280.348,10.619L-280.348,6.236L-269.363,6.236L-269.363,0.001L-288.229,0.001L-288.229,27.353ZM-315.742,27.353L-294.262,27.353L-294.262,20.955L-306.089,20.955L-294.461,5.753L-294.461,0.001L-315.5,0.001L-315.5,6.396L-304.318,6.396L-315.742,21.319L-315.742,27.353ZM-327.324,27.796C-324.068,27.796 -321.332,26.948 -319.683,26.105L-319.683,19.228C-321.251,20.073 -323.061,20.795 -325.917,20.795C-328.774,20.795 -332.915,18.623 -332.915,13.676C-332.915,8.73 -329.134,6.396 -325.472,6.396C-322.98,6.396 -321.251,6.958 -319.724,7.721L-319.724,0.926C-321.332,0.202 -323.341,-0.362 -326.562,-0.362C-334.644,-0.362 -341.522,4.948 -341.522,13.676C-341.522,22.405 -335.366,27.796 -327.324,27.796" style="fill:white;fill-rule:nonzero;"/>
    </g>
</svg>
