<?xml version="1.0" encoding="UTF-8" standalone="no"?>
<!DOCTYPE svg PUBLIC "-//W3C//DTD SVG 1.1//EN" "http://www.w3.org/Graphics/SVG/1.1/DTD/svg11.dtd">
<svg width="100%" height="100%" viewBox="0 0 600 200" version="1.1" xmlns="http://www.w3.org/2000/svg" xmlns:xlink="http://www.w3.org/1999/xlink" xml:space="preserve" xmlns:serif="http://www.serif.com/" style="fill-rule:evenodd;clip-rule:evenodd;stroke-linejoin:round;stroke-miterlimit:2;">
    <g transform="matrix(1,0,0,1,-100,-66)">
        <path d="M186.813,166C186.828,170.859 190.83,174.849 195.689,174.849C200.558,174.849 204.565,170.842 204.565,165.973C204.565,161.104 200.558,157.097 195.689,157.097C190.83,157.097 186.828,161.087 186.813,165.946L186.813,166M143.763,198.481C143.752,193.312 145.809,188.348 149.474,184.703L161.295,172.896L179.678,191.266L186.561,184.383L162.413,160.236C157.545,155.4 157.173,147.553 161.561,142.278C162.137,142.393 162.724,142.451 163.312,142.451C168.24,142.451 172.296,138.395 172.296,133.466C172.296,128.537 168.24,124.481 163.312,124.481C158.383,124.481 154.327,128.537 154.327,133.466C154.327,134.129 154.4,134.789 154.545,135.436C146.87,144.09 146.83,157.246 154.452,165.946L142.579,177.821C137.142,183.304 134.089,190.72 134.089,198.441C134.089,214.46 147.233,227.659 163.252,227.726L163.252,217.982C152.561,217.982 143.763,209.185 143.763,198.494L143.763,198.481ZM149.474,119.742C157.032,112.18 169.473,112.177 177.035,119.734L177.043,119.742L188.837,131.536L170.48,149.92L177.362,156.802L201.51,132.668C206.344,127.808 214.181,127.436 219.454,131.816C219.338,132.396 219.28,132.986 219.28,133.578C219.28,138.514 223.342,142.576 228.278,142.576C233.214,142.576 237.276,138.514 237.276,133.578C237.276,128.642 233.214,124.58 228.278,124.58C227.611,124.58 226.946,124.654 226.296,124.801C217.643,117.125 204.486,117.085 195.786,124.708L183.912,112.833C178.431,107.413 171.027,104.37 163.318,104.37C147.309,104.37 134.114,117.497 134.033,133.507L143.777,133.507C143.765,128.344 145.818,123.386 149.474,119.742M228.24,104.274L228.24,114.018C228.265,114.018 228.289,114.018 228.314,114.018C239.005,114.018 247.803,122.815 247.803,133.506C247.803,138.678 245.744,143.643 242.084,147.297L230.277,159.118L211.827,140.735L204.945,147.617L229.079,171.764C233.946,176.6 234.319,184.447 229.931,189.722C229.354,189.607 228.768,189.549 228.18,189.549C223.251,189.549 219.195,193.605 219.195,198.534C219.195,203.463 223.251,207.519 228.18,207.519C233.109,207.519 237.165,203.463 237.165,198.534C237.165,197.872 237.091,197.211 236.946,196.564C244.622,187.91 244.662,174.754 237.039,166.054L248.913,154.18C254.349,148.697 257.403,141.281 257.403,133.56C257.403,117.54 244.259,104.341 228.24,104.274M242.084,212.272C234.527,219.834 222.086,219.837 214.524,212.28L214.516,212.272L202.708,200.465L221.012,182.081L214.13,175.186L190.022,199.293C185.189,204.193 177.312,204.577 172.025,200.172C172.138,199.599 172.195,199.017 172.195,198.433C172.195,193.503 168.138,189.446 163.208,189.446C158.278,189.446 154.221,193.503 154.221,198.433C154.221,203.363 158.278,207.42 163.208,207.42C163.872,207.42 164.534,207.346 165.183,207.2C173.844,214.845 186.972,214.886 195.68,207.294L207.554,219.167C213.036,224.604 220.453,227.657 228.174,227.657C244.193,227.657 257.392,214.514 257.459,198.495L247.714,198.495C247.747,203.652 245.719,208.614 242.084,212.272" style="fill:white;fill-rule:nonzero;"/>
    </g>
    <g transform="matrix(1,0,0,1,-100,-66)">
        <path d="M374.694,153.234C374.694,138.591 362.381,128.168 346.168,128.168L313.82,128.168L313.82,205.03L325.122,205.03L325.122,178.313L342.8,178.313L361.596,205.057L374.575,205.057L354.994,177.182C366.641,174.16 374.694,165.095 374.694,153.234ZM325.122,167.784L325.122,138.684L344.584,138.684C355.659,138.684 363.22,144.169 363.22,153.234C363.22,162.3 355.672,167.784 344.584,167.784L325.122,167.784Z" style="fill:white;fill-rule:nonzero;"/>
    </g>
    <g transform="matrix(1,0,0,1,-100,-66)">
        <rect x="387.66" y="128.168" width="11.302" height="76.888" style="fill:white;"/>
    </g>
    <g transform="matrix(1,0,0,1,-100,-66)">
        <path d="M452.781,137.26C460.568,137.392 467.957,140.772 473.148,146.578L481.135,138.977C473.733,131.282 463.512,126.916 452.835,126.89C431.243,126.89 412.899,145.021 412.899,166.612C412.899,188.204 431.243,206.441 452.835,206.441C463.493,206.331 473.674,201.951 481.082,194.287L473.095,186.686C467.904,192.492 460.516,195.873 452.728,196.004C437.446,195.978 424.454,182.546 424.454,166.545C424.454,150.544 437.446,137.233 452.781,137.233L452.781,137.26Z" style="fill:white;fill-rule:nonzero;"/>
    </g>
    <g transform="matrix(1,0,0,1,-100,-66)">
        <path d="M532.544,128.168L520.018,128.194L487.018,205.043L499.545,205.043L506.201,189.375L546.255,189.375L552.911,205.043L565.557,205.043L532.544,128.168ZM510.62,179.218L526.288,142.744L541.956,179.218L510.62,179.218Z" style="fill:white;fill-rule:nonzero;"/>
    </g>
    <g transform="matrix(1,0,0,1,-100,-66)">
        <rect x="576.966" y="128.168" width="11.302" height="76.902" style="fill:white;"/>
    </g>
    <g transform="matrix(1,0,0,1,-100,-66)">
        <path d="M637.441,128.168L605.16,128.168L605.16,205.03L616.462,205.03L616.462,178.313L637.442,178.313C653.669,178.313 665.968,167.903 665.968,153.247C665.968,138.592 653.721,128.168 637.441,128.168ZM635.923,167.784L635.87,167.77L616.461,167.77L616.461,138.684L635.936,138.684C647.012,138.684 654.573,144.169 654.573,153.234C654.573,162.3 646.998,167.784 635.923,167.784Z" style="fill:white;fill-rule:nonzero;"/>
    </g>
</svg>
