<svg id="Layer_1" data-name="Layer 1" xmlns="http://www.w3.org/2000/svg" viewBox="0 0 800 332"><path d="M186.8134,166a8.8758,8.8758,0,1,0,0-.0536l0,.0536m-43.05,32.4808a19.3715,19.3715,0,0,1,5.7108-13.778l11.8207-11.8073,18.3835,18.37,6.8823-6.8823L162.4131,160.236a13.3118,13.3118,0,0,1-.8522-17.9576,8.9848,8.9848,0,1,0-7.0154-6.8422,23.069,23.069,0,0,0-.0931,30.51l-11.8736,11.8746a29.2854,29.2854,0,0,0,20.673,49.9053v-9.7439a19.4887,19.4887,0,0,1-19.4887-19.4883Zm5.7108-78.739a19.4886,19.4886,0,0,1,27.5606-.0077l.0081.0077,11.7939,11.7942L170.48,149.92l6.8822,6.8818,24.1474-24.1341a13.3125,13.3125,0,0,1,17.9444-.8519,8.9981,8.9981,0,1,0,6.8421-7.0151,23.0687,23.0687,0,0,0-30.51-.093l-11.8741-11.8742a29.2857,29.2857,0,0,0-49.8791,20.6731h9.7441a19.37,19.37,0,0,1,5.6974-13.7645m78.7653-15.4679v9.7441a19.4883,19.4883,0,0,1,13.8443,33.279l-11.8074,11.8207-18.45-18.3832-6.8818,6.8823,24.1339,24.1473a13.312,13.312,0,0,1,.8522,17.9574,8.985,8.985,0,1,0,7.0149,6.8421,23.0685,23.0685,0,0,0,.0931-30.51l11.8741-11.8742a29.2855,29.2855,0,0,0-20.673-49.9053m13.8443,107.9975a19.4885,19.4885,0,0,1-27.5606.0082l-.0081-.0082-11.8073-11.8072,18.3034-18.3835-6.8818-6.8957-24.1078,24.1077a13.3114,13.3114,0,0,1-17.9973.8785,8.9868,8.9868,0,1,0-6.8422,7.0282,23.1226,23.1226,0,0,0,30.4973.0937l11.8737,11.8736a29.2858,29.2858,0,0,0,49.9058-20.6726H247.714a19.3658,19.3658,0,0,1-5.6305,13.7773" fill="#fff"/><path d="M374.6943,153.2339c0-14.6427-12.3132-25.0656-28.5268-25.0656H313.82V205.03h11.302V178.3132H342.8l18.796,26.7433h12.9788l-19.5813-27.8747C366.6411,174.16,374.6943,165.0948,374.6943,153.2339Zm-49.5725,14.55V138.6842h19.4618c11.0751,0,18.6362,5.4845,18.6362,14.55s-7.5477,14.55-18.6362,14.55Z" fill="#fff"/><rect x="387.6602" y="128.1682" width="11.3018" height="76.8882" fill="#fff"/><path d="M452.7808,137.26a27.9549,27.9549,0,0,1,20.367,9.3178l7.9869-7.6006a39.4022,39.4022,0,0,0-28.3-12.0872c-21.5919,0-39.9354,18.1305-39.9354,39.722s18.3435,39.8286,39.9354,39.8286a39.8565,39.8565,0,0,0,28.2476-12.1534l-7.9874-7.6011a27.9529,27.9529,0,0,1-20.3666,9.3183c-15.2821-.0268-28.2742-13.458-28.2742-29.459s12.9921-29.3122,28.3272-29.3122Z" fill="#fff"/><path d="M532.5442,128.1683l-12.5262.026-33,76.8489H499.545l6.6555-15.6679h40.0548l6.656,15.6679h12.6461Zm-21.9242,51.05,15.6678-36.4743,15.6679,36.4743Z" fill="#fff"/><rect x="576.9656" y="128.1682" width="11.3017" height="76.9015" fill="#fff"/><path d="M637.4409,128.1683H605.16V205.03h11.3018V178.3132h20.98c16.2268,0,28.5267-10.41,28.5267-25.0658S653.7211,128.1683,637.4409,128.1683Zm-1.5181,39.6153-.053-.0132H616.4614V138.6842h19.4749c11.0753,0,18.6365,5.4845,18.6365,14.55S646.9983,167.7836,635.9228,167.7836Z" fill="#fff"/></svg>